HIERARCHY
ROOT SpineBase
{
  OFFSET 0.000000 0.000000 0.000000
  CHANNELS 6 Xposition Yposition Zposition Zrotation Xrotation Yrotation
  JOINT SpineMid
  {
    OFFSET -0.000000 32.512797 0.000000
    CHANNELS 3 Zrotation Xrotation Yrotation
    JOINT SpineShoulder
    {
      OFFSET -0.040233 23.993792 -0.805577
      CHANNELS 3 Zrotation Xrotation Yrotation
      JOINT Neck
      {
        OFFSET -0.061902 7.988141 -0.611377
        CHANNELS 3 Zrotation Xrotation Yrotation
        JOINT Head
        {
          OFFSET -2.558993 9.408675 4.070287
          CHANNELS 3 Zrotation Xrotation Yrotation
          End Site
          {
            OFFSET 0 0 0
          }
        }
      }
      JOINT ShoulderLeft
      {
        OFFSET -15.297335 -5.034007 2.623515
        CHANNELS 3 Zrotation Xrotation Yrotation
        JOINT ElbowLeft
        {
          OFFSET -2.713790 -21.215059 6.912039
          CHANNELS 3 Zrotation Xrotation Yrotation
          JOINT WristLeft
          {
            OFFSET 24.796144 0.481942 -16.129290
            CHANNELS 3 Zrotation Xrotation Yrotation
            JOINT HandLeft
            {
              OFFSET 5.638709 1.346464 -5.172508
              CHANNELS 3 Zrotation Xrotation Yrotation
              JOINT HandTipLeft
              {
                OFFSET 5.291132 0.123450 2.401389
                CHANNELS 3 Zrotation Xrotation Yrotation
                End Site
                {
                  OFFSET 0 0 0
                }
              }
              JOINT ThumbLeft
              {
                OFFSET -4.073193 4.943141 -4.948714
                CHANNELS 3 Zrotation Xrotation Yrotation
                End Site
                {
                  OFFSET 0 0 0
                }
              }
            }
          }
        }
      }
      JOINT ShoulderRight
      {
        OFFSET 6.543622 -4.486649 -8.792180
        CHANNELS 3 Zrotation Xrotation Yrotation
        JOINT ElbowRight
        {
          OFFSET 2.808724 -21.176773 -4.787515
          CHANNELS 3 Zrotation Xrotation Yrotation
          JOINT WristRight
          {
            OFFSET 18.618197 16.000680 14.343884
            CHANNELS 3 Zrotation Xrotation Yrotation
            JOINT HandRight
            {
              OFFSET 2.268496 7.126340 2.898173
              CHANNELS 3 Zrotation Xrotation Yrotation
              JOINT HandTipRight
              {
                OFFSET 2.418642 7.130215 -1.427080
                CHANNELS 3 Zrotation Xrotation Yrotation
                End Site
                {
                  OFFSET 0 0 0
                }
              }
              JOINT ThumbRight
              {
                OFFSET 5.092873 -1.274911 -4.882902
                CHANNELS 3 Zrotation Xrotation Yrotation
                End Site
                {
                  OFFSET 0 0 0
                }
              }
            }
          }
        }
      }
    }
  }
  JOINT HipLeft
  {
    OFFSET -5.381250 0.681022 -0.902787
    CHANNELS 3 Zrotation Xrotation Yrotation
    JOINT KneeLeft
    {
      OFFSET -2.629243 -32.340005 6.615123
      CHANNELS 3 Zrotation Xrotation Yrotation
      JOINT AnkleLeft
      {
        OFFSET 1.415365 -30.359056 -4.702218
        CHANNELS 3 Zrotation Xrotation Yrotation
        JOINT FootLeft
        {
          OFFSET 9.891553 -1.718267 -9.732164
          CHANNELS 3 Zrotation Xrotation Yrotation
          End Site
          {
            OFFSET 0 0 0
          }
        }
      }
    }
  }
  JOINT HipRight
  {
    OFFSET 5.619135 1.811657 -6.203166
    CHANNELS 3 Zrotation Xrotation Yrotation
    JOINT KneeRight
    {
      OFFSET -3.599243 -29.513683 0.975615
      CHANNELS 3 Zrotation Xrotation Yrotation
      JOINT AnkleRight
      {
        OFFSET 0.022069 -31.822242 -1.394114
        CHANNELS 3 Zrotation Xrotation Yrotation
        JOINT FootRight
        {
          OFFSET -4.036476 -2.674868 -12.081164
          CHANNELS 3 Zrotation Xrotation Yrotation
          End Site
          {
            OFFSET 0 0 0
          }
        }
      }
    }
  }
}
MOTION
Frames: 10
Frame Time: 0.033333
-8.437354 64.991841 302.202446 -0.327690 0.093110 18.140435 0.282415 -0.190506 -18.139699 -1.174757 0.086919 -0.088361 -1.121888 1.803683 1.629091 0.000000 0.000000 0.000000 1.805714 -1.798966 0.522714 8.221525 7.481099 0.944020 -4.658148 1.537677 -26.466052 44.799518 7.531097 62.791210 0.000000 0.000000 0.000000 0.000000 0.000000 0.000000 39.030681 -7.288820 -6.993490 -2.328479 -17.003056 18.266721 12.075685 -25.417699 3.467493 -11.129517 31.001809 11.198507 0.000000 0.000000 0.000000 0.000000 0.000000 0.000000 10.182297 4.561929 -17.498226 -13.584472 -14.653069 -2.146630 5.288069 8.120459 3.235254 0.000000 0.000000 0.000000 0.990751 -3.633247 -17.685713 -1.202807 7.708008 -0.451094 -0.663188 -4.753886 0.951322 0.000000 0.000000 0.000000
-8.278018 65.321593 302.366801 -0.423980 0.262488 17.625463 0.324604 -0.378538 -17.623419 -1.184995 0.368630 -0.084056 -1.833642 1.093974 1.817659 0.000000 0.000000 0.000000 3.803425 -0.252310 0.947570 7.934972 6.425932 -2.220803 -0.829239 3.876527 -25.051391 33.066394 -0.430044 63.927657 0.000000 0.000000 0.000000 0.000000 0.000000 0.000000 46.376072 -9.830446 -7.412261 1.854379 -19.375616 25.003778 3.814012 -20.063253 1.860829 -7.935031 21.725629 16.753604 0.000000 0.000000 0.000000 0.000000 0.000000 0.000000 13.201555 5.601641 -16.824868 -19.381152 -18.236915 -3.535543 5.681042 7.489633 2.509368 0.000000 0.000000 0.000000 2.071819 -3.733990 -17.145466 -3.037239 6.920703 -0.300831 0.398841 -4.229674 -0.005689 0.000000 0.000000 0.000000
-8.180961 65.636822 302.644978 -0.817987 0.381330 17.776463 -0.322515 0.243119 -17.812788 -0.626627 0.042096 -0.098238 0.472236 1.263993 1.228068 0.000000 0.000000 0.000000 5.151317 1.265431 0.984477 11.950843 6.896251 -7.072489 -1.317804 4.052176 -18.007023 28.412041 -7.392742 59.743280 0.000000 0.000000 0.000000 0.000000 0.000000 0.000000 53.713821 -13.541046 -7.017792 6.102409 -19.058315 32.751707 -5.632278 -7.695989 -5.822966 -3.766349 8.908190 24.873188 0.000000 0.000000 0.000000 0.000000 0.000000 0.000000 15.717241 6.011233 -16.809451 -24.162369 -20.399600 -4.799250 5.217406 5.783357 2.105387 0.000000 0.000000 0.000000 3.730191 -3.651817 -17.288222 -5.677751 5.334745 -0.100088 1.851853 -3.344162 -0.029430 0.000000 0.000000 0.000000
-8.151097 65.876205 303.024278 -1.269365 0.652027 17.596536 -0.242582 0.427357 -17.639842 -0.621049 0.134130 -0.113359 2.258815 0.065024 0.501306 0.000000 0.000000 0.000000 5.236596 2.168448 0.721968 12.652721 5.370238 -9.064795 -1.619171 4.361255 -15.432082 28.558485 -7.904633 58.973133 0.000000 0.000000 0.000000 0.000000 0.000000 0.000000 59.297593 -17.381633 -5.693231 7.045694 -16.855243 36.547668 -15.967088 9.019048 -9.851081 4.882439 -8.886388 32.897942 0.000000 0.000000 0.000000 0.000000 0.000000 0.000000 16.960245 5.485432 -16.339657 -26.212976 -20.036245 -5.167232 5.778541 5.102203 1.927741 0.000000 0.000000 0.000000 5.866512 -3.195563 -17.149341 -8.088929 3.216447 -0.003201 2.751353 0.271744 -3.653071 0.000000 0.000000 0.000000
-8.187212 66.051219 303.466407 -1.695490 0.864749 17.662605 -0.066900 0.626259 -17.705882 -0.502108 0.100614 -0.116979 3.632909 -0.838006 -0.087019 0.000000 0.000000 0.000000 4.218491 2.764882 0.220268 10.767171 2.663777 -9.453367 -1.902389 4.383858 -16.759581 31.346003 -2.627972 63.152314 0.000000 0.000000 0.000000 0.000000 0.000000 0.000000 64.054025 -23.102096 -3.107130 5.914539 -12.078850 40.030036 -20.925783 6.400847 -4.818986 9.536029 -7.172214 27.926172 0.000000 0.000000 0.000000 0.000000 0.000000 0.000000 16.367262 4.015746 -16.120711 -24.608649 -16.944783 -4.263167 6.456625 4.569351 2.116622 0.000000 0.000000 0.000000 7.357774 -2.989205 -17.228608 -9.162494 2.470175 -0.001047 3.298027 0.039059 -5.201482 0.000000 0.000000 0.000000
-8.252414 66.274415 303.909025 -2.165399 1.193198 17.551919 -0.027041 0.893414 -17.595520 -0.493315 0.167394 -0.134535 5.713843 -2.542907 -0.901430 0.000000 0.000000 0.000000 2.646421 3.267275 -0.537234 5.051282 -2.788850 -12.015261 0.335351 6.519067 -12.892195 14.179873 -3.948487 75.608394 0.000000 0.000000 0.000000 0.000000 0.000000 0.000000 68.378750 -29.144226 0.565252 5.449434 -6.447905 45.589434 -28.015607 27.456331 -12.357335 14.853591 -27.322045 38.435042 0.000000 0.000000 0.000000 0.000000 0.000000 0.000000 17.034198 3.473119 -15.782552 -25.186446 -16.268609 -4.271703 6.224544 3.522735 2.056596 0.000000 0.000000 0.000000 9.193297 -2.696563 -17.130257 -10.445795 1.517999 -0.027271 4.055054 -2.477158 -5.187731 0.000000 0.000000 0.000000
-8.354587 66.498072 304.322785 -2.688740 1.434305 17.537901 0.031119 0.936644 -17.581355 -0.084165 0.241004 -0.112374 7.326396 -3.470026 -1.585657 0.000000 0.000000 0.000000 0.056220 4.466048 -1.565216 -9.907473 -12.705549 -17.921565 -2.915240 1.379979 -8.539719 -5.178788 1.033433 70.609528 0.000000 0.000000 0.000000 0.000000 0.000000 0.000000 72.664168 -35.732777 5.145698 1.975864 0.218860 46.790500 -27.348477 28.795087 -14.646783 12.986928 -33.658583 40.976020 0.000000 0.000000 0.000000 0.000000 0.000000 0.000000 17.533879 3.033043 -15.606912 -25.203988 -15.589517 -4.180027 5.509476 2.218570 1.976617 0.000000 0.000000 0.000000 10.656563 -2.563626 -17.101515 -10.934595 1.280149 -0.064487 5.500018 -11.115032 -1.055967 0.000000 0.000000 0.000000
-8.475943 66.682759 304.668677 -2.764451 1.924341 17.352969 0.592349 0.977597 -17.358748 -0.022317 0.082191 -0.088648 4.197679 -4.872474 -0.851228 0.000000 0.000000 0.000000 -3.450865 5.838532 -2.767508 -42.865435 -24.508896 -34.047463 -9.394132 -32.291404 3.677033 -15.618810 44.772248 74.925618 0.000000 0.000000 0.000000 0.000000 0.000000 0.000000 74.288675 -42.079788 10.129174 -1.151527 6.685192 43.898246 -28.331821 22.995900 -9.913730 -1.189054 -29.603264 29.980798 0.000000 0.000000 0.000000 0.000000 0.000000 0.000000 17.100337 2.690990 -15.362028 -24.407798 -15.178952 -3.982205 4.426377 1.057281 1.972092 0.000000 0.000000 0.000000 11.091502 -2.589211 -16.891375 -10.413584 1.506662 -0.093030 5.807762 -15.436562 -0.356053 0.000000 0.000000 0.000000
-8.496676 66.860229 304.928971 -2.288494 2.595120 16.772000 1.290798 0.943143 -16.721381 -0.094482 -0.242464 -0.048736 -3.144876 -6.547683 0.917847 0.000000 0.000000 0.000000 -7.830534 6.764925 -4.059063 -74.382470 -28.030627 -49.858473 9.273053 -35.926731 12.062085 -42.516611 60.852030 96.148839 0.000000 0.000000 0.000000 0.000000 0.000000 0.000000 78.338816 -47.999616 16.448787 -8.185029 13.815930 40.428596 -28.755632 15.718953 -3.727638 -5.561142 -18.910200 20.091582 0.000000 0.000000 0.000000 0.000000 0.000000 0.000000 16.014664 2.438075 -14.772563 -24.689209 -15.748871 -3.997539 4.387530 0.777077 -1.505883 0.000000 0.000000 0.000000 10.245211 -2.528006 -16.348203 -9.003174 2.035234 -0.088928 6.970642 -22.622018 2.338829 0.000000 0.000000 0.000000
-8.420187 67.039714 305.069855 -1.388098 3.570386 15.893003 1.880614 0.918999 -15.785116 -0.236230 -0.474658 0.005457 -11.020366 -10.436054 1.767100 0.000000 0.000000 0.000000 -12.355045 7.328785 -5.420242 -90.437335 -29.433330 -57.198849 13.568548 -20.845332 2.533839 -52.443150 53.249528 100.631526 0.000000 0.000000 0.000000 0.000000 0.000000 0.000000 82.474690 -52.718026 23.400128 -17.077411 21.008533 34.441956 -25.714506 5.005337 2.609483 -11.150505 -2.831750 12.288742 0.000000 0.000000 0.000000 0.000000 0.000000 0.000000 14.043455 2.183903 -13.996526 -22.900696 -15.608442 -3.670815 3.162862 0.195192 -0.744188 0.000000 0.000000 0.000000 8.127970 -2.736352 -15.538307 -6.706933 3.030680 -0.067372 9.703655 -32.143928 7.831668 0.000000 0.000000 0.000000
